<?xml version="1.0" standalone="no"?>
<!DOCTYPE svg PUBLIC "-//W3C//DTD SVG 20010904//EN"
 "http://www.w3.org/TR/2001/REC-SVG-20010904/DTD/svg10.dtd">
<svg version="1.0" xmlns="http://www.w3.org/2000/svg"
 width="500.000000pt" height="500.000000pt" viewBox="0 0 500.000000 500.000000"
 preserveAspectRatio="xMidYMid meet">
<metadata>
Created by potrace 1.16, written by Peter Selinger 2001-2019
</metadata>
<g transform="translate(0.000000,500.000000) scale(0.100000,-0.100000)"
fill="#000000" stroke="none">
<path d="M95 4978 c-6 -13 -21 -24 -35 -26 -43 -6 -60 -30 -60 -83 0 -38 4
-51 20 -59 31 -17 59 -2 77 38 8 21 19 45 24 54 5 10 9 27 9 38 0 15 7 20 28
20 27 0 52 15 52 32 0 4 -24 8 -53 8 -45 0 -54 -3 -62 -22z"/>
<path d="M1693 4950 c-18 -27 -33 -56 -33 -64 0 -16 60 -32 84 -23 12 5 46 52
90 125 5 9 -7 12 -51 12 l-58 0 -32 -50z"/>
<path d="M2022 4947 c-16 -29 -37 -59 -46 -66 -20 -17 -21 -47 0 -55 20 -8 58
-8 79 0 15 6 67 79 99 143 l17 31 -60 0 -59 0 -30 -53z"/>
<path d="M2383 4985 c-24 -17 -103 -153 -103 -178 0 -17 20 -27 54 -27 33 0
66 37 106 120 34 70 34 72 15 86 -24 18 -45 18 -72 -1z"/>
<path d="M2663 4938 c-27 -44 -83 -165 -83 -179 0 -21 18 -28 56 -22 42 8 52
19 95 107 29 60 36 83 27 93 -13 17 -84 17 -95 1z"/>
<path d="M2988 4910 c-24 -15 -98 -164 -98 -199 0 -30 2 -31 43 -31 55 0 67
13 106 115 31 79 38 114 24 116 -5 0 -19 2 -33 5 -14 2 -32 -1 -42 -6z"/>
<path d="M585 4736 c-28 -28 -33 -61 -10 -73 22 -13 -3 -44 -39 -48 -33 -4
-53 -19 -72 -56 -20 -40 -19 -44 28 -56 35 -9 45 -9 64 5 42 31 73 112 44 112
-5 0 -10 7 -10 15 0 13 4 16 25 15 16 -1 67 34 81 56 21 31 12 40 -43 49 -37
6 -46 3 -68 -19z"/>
<path d="M2996 4213 c-3 -3 -6 -15 -6 -27 0 -11 -9 -29 -20 -41 -10 -11 -21
-36 -22 -55 l-3 -35 54 1 c64 2 83 18 85 71 1 34 -2 38 -24 40 -14 0 -30 1
-37 2 -6 1 -9 9 -6 20 5 19 -9 36 -21 24z"/>
<path d="M2907 3990 c-21 -26 -37 -59 -37 -75 0 -15 39 -41 55 -36 6 1 21 4
35 5 30 3 72 60 68 91 -2 16 -12 21 -56 25 -40 4 -56 2 -65 -10z"/>
<path d="M3959 3763 c-1 -5 -2 -12 -4 -18 -1 -5 -3 -15 -3 -22 -1 -7 -18 -15
-37 -19 -19 -3 -35 -11 -35 -17 0 -6 -7 -2 -15 10 -15 22 -55 38 -55 21 0 -5
-10 -8 -22 -6 -17 2 -22 -1 -20 -14 2 -13 -4 -18 -19 -18 -15 0 -19 5 -15 15
8 21 -7 19 -34 -5 -25 -21 -50 -26 -50 -10 0 6 -7 10 -15 10 -8 0 -15 5 -15
10 0 20 -26 9 -53 -21 -15 -17 -27 -28 -27 -25 0 4 -8 2 -18 -3 -26 -14 -56
11 -50 44 4 19 1 25 -12 25 -10 0 -23 -6 -29 -14 -10 -11 -7 -19 10 -35 l23
-21 -22 0 c-13 0 -22 6 -22 16 0 9 -6 14 -12 11 -7 -2 -23 0 -35 4 -14 5 -23
5 -23 -2 0 -5 7 -12 15 -15 21 -8 19 -24 -2 -24 -13 0 -15 -3 -5 -8 21 -14 32
-69 20 -103 -6 -16 -9 -32 -7 -34 7 -6 54 -10 54 -4 0 16 31 40 47 36 10 -3
21 -1 24 4 3 5 -1 9 -8 9 -7 0 -13 11 -13 24 0 29 17 24 35 -10 7 -13 17 -24
22 -24 5 0 6 5 2 11 -4 7 -1 10 7 7 8 -2 15 -21 17 -40 3 -32 -3 -42 -60 -98
-35 -35 -90 -86 -123 -113 -33 -28 -60 -56 -60 -63 0 -7 -9 -20 -20 -29 -11
-9 -14 -14 -7 -10 7 4 19 1 27 -5 11 -9 15 -9 15 -1 0 24 19 9 33 -27 77 -193
659 -345 1105 -288 68 9 127 18 132 21 5 3 18 2 28 -4 20 -11 48 1 39 16 -4 6
6 16 21 22 24 11 25 14 9 22 -12 7 -29 7 -52 -1 -37 -12 -95 -5 -95 11 0 6
-21 8 -47 5 -65 -6 -94 -16 -86 -29 3 -6 1 -7 -6 -3 -6 4 -39 9 -74 11 -71 5
-149 22 -108 24 14 1 34 10 45 20 25 23 133 36 173 20 33 -12 56 6 50 40 -3
13 0 33 7 44 9 16 8 21 -4 25 -26 9 -72 65 -67 82 2 9 -2 25 -9 35 -8 10 -14
29 -14 42 0 13 -4 23 -10 23 -5 0 -10 7 -10 15 0 8 -5 15 -11 15 -6 0 -9 6 -6
14 3 8 1 16 -6 19 -8 2 -11 26 -9 70 3 55 1 67 -12 67 -18 0 -22 16 -4 22 7 3
9 14 3 34 -7 29 -7 29 -18 7 -5 -13 -14 -23 -19 -23 -4 0 -8 -12 -8 -26 0 -23
-20 -54 -34 -54 -3 0 -6 8 -6 18 0 10 -7 27 -15 38 -8 10 -15 27 -15 36 0 9
-5 29 -12 45 -6 15 -10 34 -9 41 1 6 -3 12 -8 12 -6 0 -8 6 -5 14 4 11 -5 17
-33 22 -21 5 -42 7 -47 6 -5 -2 -6 3 -4 10 4 9 -4 14 -23 15 -16 1 -29 -2 -29
-7 0 -6 -7 -10 -15 -10 -10 0 -15 -10 -15 -30 0 -23 -4 -30 -20 -30 -13 0 -20
7 -20 20 0 11 -5 20 -11 20 -5 0 -7 5 -4 10 3 6 2 10 -3 10 -6 0 -8 16 -5 35
3 19 2 35 -1 35 -3 0 -7 -3 -7 -7z"/>
<path d="M20 3670 c13 -9 13 -12 -2 -24 -20 -15 -24 -71 -7 -82 6 -3 17 -22
25 -40 8 -19 20 -34 27 -34 14 0 77 -72 77 -88 0 -5 7 -15 15 -22 12 -10 15
-10 15 2 0 8 -5 19 -12 26 -7 7 -13 29 -15 48 -1 20 -8 44 -16 53 -8 9 -12 22
-10 29 3 6 0 12 -6 12 -5 0 -8 13 -6 29 5 43 -5 71 -25 71 -10 0 -23 7 -30 15
-7 8 -20 15 -29 15 -14 0 -14 -2 -1 -10z"/>
<path d="M1100 3265 c0 -3 12 -17 28 -30 l27 -24 -32 -7 c-18 -3 -34 -12 -34
-18 -5 -48 -20 -96 -29 -91 -5 3 -11 1 -14 -4 -11 -17 -56 13 -56 37 0 26 -6
28 -26 7 -12 -12 -12 -15 -2 -16 7 -1 2 -4 -12 -9 -16 -4 -29 -3 -35 5 -6 7
-24 12 -40 11 -17 -1 -36 3 -42 8 -8 5 -13 5 -13 -2 0 -5 -11 -12 -25 -14 -18
-4 -35 3 -58 23 -30 26 -32 27 -35 9 -2 -11 -10 -20 -18 -20 -9 0 -12 5 -8 13
4 6 -2 4 -13 -6 -19 -16 -21 -16 -27 -1 -4 10 -12 14 -22 10 -9 -4 -23 -1 -30
5 -11 9 -14 8 -14 -7 0 -14 -3 -15 -12 -6 -20 20 -40 15 -33 -10 6 -17 4 -20
-11 -14 -10 4 -21 1 -27 -6 -6 -9 -7 -8 -3 5 3 11 -1 26 -11 35 -15 15 -16 15
-11 1 5 -12 0 -16 -18 -16 -17 0 -24 5 -24 18 0 25 -15 32 -76 33 -29 1 -56 4
-59 8 -4 4 -13 4 -21 1 -8 -3 -17 2 -20 11 -12 32 -19 14 -17 -46 2 -54 1 -59
-8 -35 -6 15 -15 27 -20 27 -5 0 -3 -16 6 -35 13 -32 13 -37 0 -42 -9 -3 -21
0 -29 6 -7 6 -21 8 -30 5 -16 -6 -16 -8 0 -25 10 -11 14 -22 11 -26 -4 -3 -7
-1 -7 5 0 7 -8 12 -17 12 -10 0 -31 7 -47 15 -31 17 -48 12 -39 -10 7 -19 -11
-19 -26 -1 -10 11 -8 16 8 21 12 3 21 13 21 21 0 8 5 14 10 14 6 0 10 -5 10
-11 0 -6 9 -8 20 -4 15 5 20 2 20 -12 0 -11 3 -14 8 -7 4 6 13 13 21 15 9 3 3
15 -20 39 -19 19 -44 48 -56 64 l-22 29 -11 -27 c-5 -15 -14 -24 -20 -21 -6 4
-10 -8 -10 -28 0 -24 6 -37 17 -42 17 -6 17 -7 1 -16 -21 -12 -25 -71 -5 -86
6 -6 25 -8 40 -6 19 2 26 0 22 -7 -3 -6 -10 -8 -14 -6 -4 3 -13 1 -21 -5 -13
-7 -12 -9 3 -9 9 0 17 -4 17 -10 0 -10 -15 -14 -34 -11 -5 1 -6 -5 -3 -14 4
-9 1 -15 -7 -15 -11 0 -14 -26 -15 -125 l0 -125 31 0 c29 0 30 1 13 14 -12 8
-18 26 -19 52 0 21 -5 42 -11 46 -6 5 -3 8 8 8 19 0 23 30 6 47 -8 8 -3 16 20
27 17 9 46 29 64 45 l33 29 75 -42 c61 -35 89 -44 144 -49 43 -4 89 -16 122
-32 48 -24 56 -33 93 -108 47 -94 70 -121 123 -148 40 -21 169 -144 160 -153
-9 -9 18 -36 30 -29 6 4 7 1 2 -6 -4 -8 1 -18 14 -27 12 -8 21 -23 21 -32 0
-9 14 -39 30 -67 16 -27 30 -57 30 -66 0 -41 24 -40 161 10 194 69 292 122
308 165 5 11 12 37 16 56 6 32 6 33 -8 16 -14 -19 -15 -19 -21 2 -10 29 -24
28 -32 -3 -7 -28 -19 -32 -28 -10 -3 9 0 15 8 15 8 0 17 7 20 16 9 23 8 26
-11 23 -27 -4 -60 10 -67 27 -5 13 -1 15 21 10 l28 -7 -25 20 c-24 19 -24 19
-36 -2 -9 -17 -8 -24 2 -33 8 -6 14 -16 14 -21 0 -6 7 -16 15 -23 27 -22 16
-30 -40 -30 -30 0 -55 -4 -55 -10 0 -5 -5 -10 -10 -10 -6 0 -5 8 2 19 7 11 17
17 23 13 5 -3 4 1 -3 10 -7 8 -31 18 -53 22 -37 6 -41 9 -36 32 3 20 -3 30
-36 52 -22 15 -53 39 -69 54 -15 15 -36 28 -45 30 -10 2 -24 16 -31 31 -7 15
-20 27 -28 27 -8 0 -13 4 -9 10 3 5 12 7 21 3 8 -3 21 2 28 12 11 16 16 15 69
-15 32 -18 64 -29 73 -26 8 3 24 1 35 -4 14 -8 25 -7 40 4 12 8 26 13 33 11 6
-3 25 -10 41 -17 38 -15 106 -18 123 -5 15 12 16 67 1 67 -5 0 -8 4 -5 9 3 5
-1 14 -9 21 -10 9 -15 9 -15 1 0 -6 -4 -11 -10 -11 -5 0 -20 -10 -32 -22 -13
-13 -23 -17 -26 -10 -2 6 -10 8 -18 5 -10 -4 -12 0 -8 11 5 12 2 15 -12 10
-11 -4 -25 -14 -31 -22 -7 -9 -13 -13 -13 -9 0 4 -9 3 -20 -3 -12 -6 -20 -7
-20 -1 0 5 -6 11 -12 14 -7 2 -1 2 15 0 18 -3 29 0 33 11 10 26 -5 39 -29 24
-12 -8 -36 -15 -53 -16 -29 -3 -32 -1 -36 32 -4 34 -3 35 27 32 49 -6 51 -7
30 -16 -14 -6 -8 -8 23 -6 53 4 56 7 34 32 -10 10 -21 27 -25 37 -5 14 -1 17
26 18 18 0 42 2 55 3 12 2 22 0 22 -4 0 -10 85 -29 88 -20 2 5 10 6 18 3 7 -3
12 -9 9 -13 -7 -12 15 -70 27 -70 6 0 8 12 5 30 -4 16 -2 42 3 57 6 17 6 40 1
58 -5 17 -10 24 -10 17 -1 -10 -5 -10 -21 0 -13 8 -18 19 -14 34 4 14 0 23
-10 27 -8 3 -24 25 -35 47 l-20 42 45 54 c47 59 55 92 25 111 -17 11 -18 9
-13 -34 4 -37 2 -44 -9 -37 -23 14 -48 12 -42 -3 3 -8 11 -12 18 -9 8 3 11 -2
8 -15 -7 -26 -17 -24 -39 7 -34 46 -54 67 -54 57 0 -9 -14 -10 -55 -4 -5 1 -3
6 5 11 17 11 16 11 -54 13 -38 2 -52 7 -64 25 -13 20 -32 30 -32 17z"/>
<path d="M3163 3137 c-34 -24 -58 -48 -55 -54 4 -6 21 -17 38 -26 16 -8 57
-40 90 -71 32 -30 63 -56 67 -56 12 0 136 -118 197 -186 14 -16 52 -49 83 -72
92 -70 110 -106 143 -292 4 -19 21 -51 39 -70 37 -40 79 -104 90 -138 4 -13
15 -32 25 -42 11 -11 40 -63 67 -116 39 -80 48 -107 48 -153 0 -31 4 -62 8
-68 5 -8 4 -13 -2 -13 -7 0 -9 -19 -6 -52 8 -82 13 -91 43 -84 18 5 22 4 13
-3 -7 -5 -10 -14 -7 -20 4 -6 4 -11 -1 -11 -4 0 -14 -4 -22 -9 -11 -7 -10 -14
5 -37 18 -28 18 -29 -1 -14 -17 14 -18 13 -13 -2 4 -9 4 -19 1 -22 -10 -9 -33
22 -34 46 0 13 -3 17 -6 11 -3 -9 -10 -10 -22 -3 -15 8 -17 6 -13 -15 2 -14 8
-23 12 -20 4 2 5 -7 2 -21 -4 -22 -2 -24 20 -19 l24 6 -3 -122 c-1 -67 -7
-127 -13 -133 -7 -7 -10 -2 -11 15 0 19 -2 20 -7 7 -5 -13 -11 -15 -22 -8 -24
15 -32 12 -25 -10 4 -11 2 -20 -4 -20 -6 0 -11 5 -11 10 0 6 -5 10 -12 10 -7
0 -7 -6 3 -17 16 -20 39 -60 39 -68 0 -3 -8 -5 -17 -4 -11 0 -13 3 -5 6 6 2
10 9 7 13 -3 5 -12 7 -19 4 -7 -3 -19 2 -26 11 -17 20 -27 19 -35 -4 -4 -13 1
-27 14 -40 22 -22 27 -41 12 -41 -5 0 -16 6 -23 14 -14 14 -68 19 -68 7 0 -4
5 -12 11 -18 7 -7 8 -17 3 -26 -8 -12 -14 -12 -39 -1 -24 10 -27 14 -13 19 9
4 14 13 12 20 -7 18 32 38 58 29 14 -4 18 -2 14 5 -4 6 -15 11 -24 12 -13 0
-12 2 5 9 21 9 24 24 10 47 -4 6 -4 18 -1 26 3 8 0 18 -7 23 -8 4 -10 3 -5 -4
4 -7 2 -12 -4 -12 -6 0 -8 -4 -5 -10 13 -22 -8 -31 -22 -10 -13 19 -13 24 -2
31 10 6 11 11 3 17 -6 4 -13 20 -16 35 -4 22 -2 27 10 22 12 -4 13 -3 2 10 -7
8 -15 13 -19 11 -3 -2 -17 2 -31 10 -14 7 -19 13 -12 14 24 0 11 70 -14 70 -8
0 -14 5 -14 10 0 13 -47 33 -82 35 -15 1 -31 5 -35 10 -5 4 -1 6 9 2 12 -4 15
0 13 20 -1 13 -10 32 -19 41 -15 16 -16 15 -13 -6 2 -13 9 -27 16 -32 9 -5 2
-9 -19 -12 -26 -4 -34 -1 -38 15 -5 19 -6 19 -19 2 -14 -20 -18 -9 -5 13 5 7
16 10 25 6 10 -3 17 -1 17 5 0 12 -1 13 -52 16 -21 1 -35 -2 -32 -6 3 -5 13
-9 22 -9 13 0 14 -2 3 -9 -10 -7 -11 -13 -1 -31 9 -18 9 -24 0 -30 -20 -12
-49 1 -71 32 -25 34 -58 50 -76 36 -9 -7 -7 -14 8 -29 10 -10 24 -19 30 -19 6
0 9 -7 5 -15 -3 -10 6 -23 29 -38 19 -12 41 -35 50 -52 8 -16 15 -25 15 -20 0
6 5 3 10 -5 5 -8 17 -15 26 -15 10 0 19 -6 22 -14 3 -10 -1 -12 -17 -8 -17 4
-14 -2 17 -39 33 -38 64 -57 61 -36 -3 20 3 32 16 32 21 0 30 -27 16 -44 -14
-16 3 -51 28 -61 11 -4 12 -3 1 10 -10 12 -10 15 4 15 9 0 16 -8 16 -19 0 -11
5 -23 10 -26 6 -4 8 -15 5 -26 -4 -11 -2 -19 5 -19 6 0 8 -5 4 -12 -5 -8 -11
-6 -20 6 -7 10 -18 15 -24 11 -6 -4 -21 1 -32 12 -12 10 -19 13 -15 7 3 -6 0
-11 -8 -11 -8 0 -12 4 -10 8 3 3 -1 12 -9 18 -11 9 -15 9 -18 -1 -8 -23 -61 8
-55 32 3 11 2 18 -2 15 -5 -2 -14 7 -21 20 -7 13 -22 25 -34 27 -15 2 -22 11
-24 31 -3 22 -7 27 -23 22 -11 -4 -19 -2 -19 4 0 6 -5 11 -11 11 -6 0 -9 -7
-5 -15 3 -8 1 -15 -4 -15 -6 0 -11 12 -11 28 -1 16 -3 20 -6 10 -6 -24 -20
-23 -28 2 -5 15 -12 19 -26 15 -10 -4 -19 -2 -19 3 0 6 -7 13 -16 16 -8 3 -12
2 -9 -4 3 -6 1 -10 -4 -10 -6 0 -11 8 -11 18 0 14 -7 18 -27 17 -46 -3 -56 5
-36 27 16 17 16 18 0 12 -18 -7 -24 11 -7 21 6 3 10 12 10 18 0 8 -3 8 -9 -1
-6 -10 -15 -4 -35 23 -15 19 -24 40 -21 45 4 6 3 10 -2 9 -18 -4 -43 14 -43
32 0 11 -8 23 -17 26 -10 4 -21 11 -25 17 -5 7 -13 5 -24 -6 -16 -16 -16 -18
7 -26 13 -6 32 -19 43 -30 18 -20 18 -21 -6 -18 -13 1 -29 6 -36 10 -15 9 -12
-14 3 -29 6 -5 9 -9 7 -8 -2 0 -17 -3 -33 -7 -25 -7 -29 -6 -29 11 0 21 -16
26 -23 7 -3 -10 -8 -9 -22 2 -17 14 -17 13 -10 -9 5 -16 4 -21 -4 -17 -6 4
-11 3 -11 -3 0 -6 16 -13 35 -17 19 -3 43 -14 54 -23 11 -9 28 -22 38 -29 17
-12 17 -12 -2 -4 -11 5 -26 7 -34 4 -8 -2 -11 -1 -8 4 7 13 -14 29 -45 32 -38
4 -43 -13 -16 -51 13 -17 22 -33 20 -34 -6 -7 -1 -24 6 -19 4 2 14 1 21 -3 9
-6 5 -8 -13 -8 -14 0 -36 10 -48 22 -48 47 -71 76 -58 73 7 -2 14 5 15 14 3
15 0 16 -16 8 -13 -7 -19 -7 -19 0 0 5 -6 10 -13 10 -23 0 -63 52 -77 100 l-8
29 25 -16 26 -17 -5 31 c-2 18 -1 30 4 27 4 -3 8 1 8 8 0 10 2 10 9 -1 6 -9
11 -10 15 -2 12 18 25 3 19 -22 -5 -22 -5 -22 10 -2 15 20 15 20 38 0 20 -18
22 -18 16 -2 -4 11 -3 16 4 12 5 -4 16 -2 23 4 11 9 18 7 32 -6 12 -13 16 -14
12 -3 -3 8 1 23 10 33 15 17 13 18 -20 21 -24 2 -37 24 -33 52 4 27 4 28 -7 7
-12 -25 -23 -29 -33 -13 -3 6 0 10 7 10 8 1 4 9 -9 19 -28 24 -28 27 -1 34 14
4 29 0 40 -10 14 -13 18 -13 18 -2 0 10 13 14 43 14 39 0 42 -2 45 -28 3 -21
8 -27 19 -23 8 3 17 6 21 6 3 0 -3 7 -14 16 -14 11 -16 17 -6 21 10 4 7 9 -8
20 -14 10 -18 18 -11 22 7 5 4 15 -10 30 -12 12 -18 25 -14 29 3 4 11 -2 17
-12 8 -15 12 -16 19 -5 13 21 11 39 -4 33 -8 -3 -20 2 -27 11 -7 8 -18 15 -24
15 -15 0 -56 42 -56 56 1 5 10 -2 20 -15 24 -28 27 -9 5 33 -8 15 -12 33 -8
39 3 6 1 7 -5 3 -7 -4 -12 -2 -12 4 0 15 -59 39 -112 44 -23 3 -37 2 -30 -1
18 -7 15 -26 -4 -19 -12 4 -15 2 -10 -9 3 -8 1 -15 -5 -15 -6 0 -6 -7 1 -20 6
-11 8 -25 5 -30 -4 -6 -1 -9 7 -8 9 2 12 -6 10 -24 -2 -16 1 -28 7 -28 6 0 11
5 11 12 0 6 9 2 19 -9 26 -27 18 -63 -12 -55 -17 4 -19 2 -13 -13 4 -11 2 -22
-6 -26 -10 -7 -10 -11 0 -21 9 -9 12 -9 12 1 0 7 5 9 10 6 12 -7 14 -45 3 -45
-5 0 -8 -20 -8 -45 0 -25 4 -45 8 -45 5 0 5 5 2 10 -3 6 -1 10 4 10 6 0 11 -4
11 -10 0 -5 8 -10 18 -11 11 -1 9 -4 -8 -9 -42 -13 -48 -11 -59 21 l-11 32
-25 -27 c-33 -36 -55 -34 -55 4 0 38 -18 39 -26 3 -3 -16 -8 -36 -10 -45 -3
-9 3 -21 13 -27 17 -10 17 -10 1 -11 -21 0 -25 -39 -6 -58 6 -6 8 -15 4 -19
-10 -10 -26 17 -26 45 0 13 -6 22 -15 22 -8 0 -15 5 -15 11 0 5 5 7 10 4 6 -3
10 1 10 10 0 12 -6 15 -20 10 -13 -4 -20 -2 -20 7 0 8 -7 23 -15 34 -13 18
-14 17 -9 -10 3 -16 7 -33 10 -38 10 -15 -9 -8 -23 10 -8 9 -12 12 -9 5 10
-20 -4 -40 -27 -38 -30 4 -85 37 -80 50 5 15 -53 38 -77 30 -11 -4 -20 -2 -20
4 0 6 -7 8 -16 4 -13 -5 -15 -2 -9 18 4 13 4 21 0 17 -10 -9 -35 10 -35 25 0
7 4 7 12 -1 16 -16 31 -15 25 1 -2 6 0 20 5 30 6 12 5 17 -7 17 -8 0 -15 4
-15 10 0 5 -7 7 -15 4 -8 -4 -15 -1 -15 5 0 6 3 10 8 10 19 -3 32 2 32 13 0
18 -50 78 -73 89 -12 5 -33 16 -46 23 -22 13 -22 15 -5 24 11 5 28 6 39 1 29
-11 35 -11 35 5 0 15 -27 29 -40 21 -4 -3 -13 2 -20 10 -7 8 -17 15 -22 15 -6
0 -31 14 -56 31 -63 43 -190 54 -212 19 -8 -12 -11 -11 -16 8 -4 12 -10 22
-14 22 -16 0 -40 -31 -40 -51 0 -11 -4 -17 -10 -14 -5 3 -10 0 -10 -7 0 -7
-16 -18 -36 -24 -35 -11 -35 -11 -30 12 4 14 2 24 -4 24 -25 0 -7 31 21 37 17
3 26 9 20 12 -15 10 -8 34 17 61 25 27 22 41 -3 16 -22 -22 -24 -21 -22 12 2
20 -2 27 -15 26 -10 -1 -18 2 -18 7 0 5 -7 9 -15 9 -8 0 -15 5 -15 10 0 6 9
10 21 10 15 0 19 4 15 16 -3 9 -6 20 -6 26 0 6 -10 8 -23 4 -12 -3 -32 -3 -44
0 -24 6 -17 20 19 40 15 8 15 11 2 29 -13 17 -16 18 -24 5 -8 -12 -10 -12 -10
-1 0 8 -6 11 -16 7 -8 -3 -12 -2 -9 4 3 6 1 10 -4 10 -19 0 -12 18 22 57 17
21 25 33 17 26 -23 -17 -72 -35 -65 -23 3 6 2 10 -4 10 -17 0 -22 -79 -14
-218 5 -74 5 -136 2 -138 -4 -2 -10 -24 -14 -49 -16 -111 -43 -143 -288 -342
-397 -322 -993 -852 -991 -879 1 -8 -7 -14 -18 -14 -13 0 -18 -5 -15 -14 3 -8
-4 -22 -16 -33 -19 -16 -20 -16 -8 0 7 9 9 17 3 17 -15 0 -35 -28 -27 -40 3
-6 -4 -10 -17 -11 -21 0 -21 -1 -3 -8 18 -7 17 -8 -6 -14 -14 -4 -30 -17 -36
-30 -6 -14 -33 -42 -60 -63 -26 -22 -54 -44 -60 -51 -10 -9 -13 -85 -13 -313
l0 -301 115 2 115 1 -6 27 -5 26 16 -27 c19 -34 50 -39 40 -6 -6 17 -4 20 10
14 14 -5 16 -2 11 20 -6 24 -6 25 9 10 12 -12 13 -20 5 -35 -13 -25 -13 -31 0
-31 6 0 10 6 10 14 0 7 7 27 15 42 10 20 15 23 15 12 0 -10 5 -18 10 -18 6 0
10 -8 10 -17 1 -17 1 -17 11 0 8 13 14 15 29 7 26 -14 30 -13 30 7 0 14 3 13
16 -5 8 -12 12 -27 9 -32 -4 -6 42 -10 129 -10 75 0 136 4 136 8 0 4 -5 13
-11 19 -8 8 -8 13 0 17 6 4 11 1 11 -7 0 -8 7 -20 15 -27 13 -10 15 -9 15 8 0
12 -4 24 -10 27 -6 3 -10 18 -9 33 l0 27 11 -25 c6 -14 12 -28 13 -32 2 -5 4
-11 5 -15 1 -5 2 -12 1 -16 -2 -15 31 -20 40 -6 8 12 10 12 19 -1 8 -12 13
-13 30 -2 12 7 20 8 20 2 0 -5 15 -9 34 -7 32 2 34 4 29 30 -3 17 -1 27 6 27
7 0 11 -6 10 -12 -6 -48 -6 -48 131 -48 l130 0 -6 24 c-3 13 -1 27 4 30 6 3
13 -7 17 -24 7 -33 35 -41 35 -10 0 11 7 20 15 20 18 0 19 12 3 28 -16 16 -28
15 -28 -3 0 -8 -5 -15 -11 -15 -5 0 -8 4 -5 9 3 4 -4 17 -15 27 l-20 18 21 8
c11 4 20 13 18 20 -1 7 3 23 10 36 7 12 10 22 7 22 -3 0 2 12 11 26 15 22 15
27 3 35 -11 7 -11 9 4 9 11 0 20 10 24 30 3 17 10 30 15 30 5 0 8 -6 6 -12 -3
-7 2 -19 9 -27 16 -15 15 -15 30 19 12 25 12 25 12 2 1 -23 5 -26 52 -36 22
-5 28 -1 34 17 l7 22 7 -24 c8 -30 28 -38 34 -14 4 14 5 13 6 -5 0 -12 4 -21
9 -21 19 3 20 -4 7 -41 -8 -22 -12 -40 -8 -40 3 0 0 -6 -6 -14 -9 -11 -9 -15
1 -19 9 -4 8 -6 -3 -6 -11 -1 -22 -20 -34 -57 -16 -52 -18 -54 -32 -35 -18 27
-29 27 -36 0 -3 -12 -10 -18 -16 -14 -6 3 -11 1 -11 -4 0 -15 27 -14 34 2 5 9
7 9 12 -1 4 -9 41 -12 145 -11 76 0 139 4 139 8 0 3 -10 12 -21 19 l-21 14 21
14 c12 9 19 20 15 25 -3 6 2 19 11 29 15 17 15 19 0 28 -16 8 -15 10 4 15 13
3 25 -1 31 -11 8 -14 9 -12 6 8 -2 14 -7 33 -11 43 -5 11 -2 17 7 17 10 0 13
9 10 29 -4 26 -2 29 17 24 12 -3 21 -1 21 6 0 6 7 11 15 11 8 0 15 5 15 10 0
6 9 10 20 10 11 0 20 7 20 15 0 8 5 15 10 15 6 0 10 -8 10 -18 0 -27 10 -33
26 -17 18 18 18 29 -1 21 -10 -4 -15 1 -15 14 0 11 -4 20 -9 20 -5 0 -11 8
-14 18 -2 9 -8 26 -12 37 -7 19 -6 18 14 -2 11 -12 21 -28 21 -36 0 -25 21
-37 38 -21 18 19 29 10 12 -11 -7 -8 -10 -22 -6 -30 3 -9 0 -25 -6 -35 -10
-15 -10 -22 0 -32 16 -16 15 -29 -1 -22 -17 6 -19 -25 -3 -45 9 -12 8 -13 -6
-9 -20 8 -33 -19 -18 -37 8 -9 6 -14 -6 -19 -10 -4 -14 -12 -10 -22 4 -10 -3
-25 -18 -39 -36 -34 -20 -46 57 -43 37 1 67 7 67 12 0 6 5 5 12 -2 7 -7 28
-12 47 -12 l34 0 -19 22 c-16 18 -16 20 -2 15 21 -7 33 20 17 39 -9 11 -8 14
5 14 10 0 19 11 23 30 6 30 31 37 25 8 -1 -9 4 -18 13 -22 17 -6 21 19 5 29
-6 4 -8 10 -5 15 3 5 1 19 -5 31 -9 15 -9 24 -1 32 8 8 11 4 11 -16 0 -15 5
-27 11 -27 6 0 9 -9 6 -20 -3 -11 -1 -20 5 -20 5 0 8 -6 6 -12 -4 -12 14 -38
26 -38 3 0 6 6 6 14 0 8 5 18 12 22 8 5 9 2 4 -11 -4 -11 -2 -22 6 -27 19 -12
28 -10 28 7 0 8 5 15 10 15 6 0 10 -9 10 -20 0 -11 5 -20 11 -20 6 0 9 6 6 14
-15 39 -19 86 -7 86 7 0 10 -6 7 -14 -3 -8 1 -17 9 -20 8 -3 14 -1 14 4 0 6 7
10 16 10 8 0 12 -5 9 -10 -4 -6 -2 -17 4 -24 9 -11 6 -18 -15 -33 l-27 -20 31
-14 c35 -15 44 -34 12 -24 -11 4 -20 2 -20 -4 0 -6 14 -11 30 -11 17 0 30 5
30 10 0 6 7 10 15 10 8 0 15 -4 15 -9 0 -5 41 -9 90 -8 l91 0 -6 28 c-4 18 -2
29 4 29 6 0 11 9 11 20 0 11 4 20 9 20 16 0 17 44 1 57 -13 11 -13 12 3 13 20
0 23 16 5 23 -8 3 -6 6 5 6 19 1 24 21 5 21 -10 0 -9 3 1 9 7 5 10 14 7 20 -4
6 -3 11 3 11 5 0 17 7 25 16 15 14 17 14 32 -1 14 -13 19 -14 26 -3 7 10 10 9
19 -4 5 -10 15 -18 20 -18 9 0 -25 58 -42 70 -3 3 -9 16 -13 30 -4 14 -4 21 1
15 4 -5 19 -19 32 -30 l24 -20 -7 23 c-5 14 -3 22 4 22 6 0 8 -4 5 -10 -3 -5
-1 -10 4 -10 17 0 13 -28 -4 -32 -12 -2 -8 -11 15 -38 16 -19 30 -30 30 -23 0
6 -7 18 -15 27 -19 19 -19 36 1 36 11 0 14 6 9 20 -11 35 9 21 37 -25 26 -43
27 -65 1 -43 -24 20 -25 1 -1 -22 19 -18 24 -19 26 -6 2 9 8 16 13 16 5 0 9 9
9 20 0 11 5 20 11 20 6 0 8 9 4 20 -8 24 10 27 19 3 4 -11 1 -22 -8 -29 -11
-8 -12 -14 -4 -22 8 -8 7 -13 -5 -18 -24 -9 -21 -23 6 -34 15 -6 17 -9 5 -9
-23 -1 -28 -23 -9 -38 14 -11 13 -12 -6 -13 -25 0 -31 -15 -10 -23 7 -3 4 -6
-6 -6 -12 -1 -17 -7 -15 -19 2 -9 -6 -27 -17 -40 -11 -13 -20 -27 -20 -30 0
-4 -4 -13 -8 -20 -7 -10 60 -12 333 -11 193 1 343 6 346 11 3 5 11 5 17 1 17
-13 109 -16 116 -4 3 5 20 13 36 16 27 7 28 6 12 -6 -15 -12 -11 -14 37 -16
58 -3 79 9 49 26 -15 9 -16 10 -2 11 18 0 44 46 40 72 -1 10 2 18 7 18 6 0 8
9 5 20 -4 14 0 20 12 20 15 0 15 3 5 15 -10 12 -10 19 -2 27 9 9 5 19 -18 39
l-30 28 29 6 c31 7 48 30 28 39 -7 2 -4 5 6 5 18 1 19 21 2 33 -6 4 -2 8 8 8
15 0 22 11 18 33 0 4 7 7 16 7 13 0 14 3 5 12 -17 17 -15 28 4 28 13 0 14 3 4
15 -6 8 -8 19 -4 26 5 8 12 4 25 -12 14 -19 15 -27 6 -39 -10 -13 -10 -13 4
-3 9 7 19 10 22 6 4 -3 7 -1 7 5 0 6 -4 14 -10 17 -16 10 -12 25 6 25 14 0 14
3 4 15 -7 8 -18 15 -24 15 -6 0 -5 -4 3 -9 10 -7 10 -10 1 -16 -7 -4 -16 -1
-21 6 -12 19 -11 39 2 39 5 0 7 5 4 10 -3 6 -15 10 -26 10 -10 0 -19 5 -19 10
0 6 9 10 19 10 28 0 35 17 11 25 -26 8 -26 25 0 18 11 -3 20 0 20 6 0 6 -6 11
-14 11 -8 0 -17 7 -20 16 -5 14 -4 15 9 4 8 -7 23 -9 32 -5 16 6 15 8 -7 17
-24 10 -24 11 -4 17 30 9 52 33 46 53 -3 13 1 18 14 18 16 0 17 2 4 10 -13 9
-13 12 3 24 12 9 14 16 8 21 -17 10 -13 25 7 25 12 0 8 6 -13 20 -21 14 -25
20 -12 20 19 0 23 26 5 33 -8 3 -6 6 5 6 23 1 22 6 -13 43 -17 17 -28 33 -25
36 2 3 13 -6 23 -18 12 -15 23 -20 32 -15 11 7 9 10 -6 16 -18 7 -18 8 3 8 12
1 24 9 28 21 3 11 10 20 15 20 4 0 6 9 3 20 -3 12 0 20 6 20 7 0 9 -5 6 -10
-3 -6 1 -10 11 -10 15 0 15 2 0 25 -21 32 -22 52 -1 35 9 -8 15 -9 15 -2 0 6
-4 14 -10 17 -5 3 -10 13 -10 21 0 14 2 14 15 0 8 -8 15 -20 15 -26 0 -6 5 -8
10 -5 6 3 10 1 10 -4 0 -6 5 -11 12 -11 6 0 3 9 -7 20 -10 11 -16 23 -13 26 8
8 78 -58 78 -73 0 -7 6 -13 14 -13 9 0 12 7 9 20 -3 11 -1 20 5 20 6 0 8 9 5
20 -3 13 0 20 8 20 10 0 10 3 1 12 -9 9 -15 9 -23 1 -9 -9 -15 -8 -27 3 -8 8
-17 13 -20 10 -2 -3 6 -14 18 -24 13 -10 20 -24 16 -30 -4 -7 -19 3 -41 26
-29 31 -36 34 -45 22 -8 -13 -12 -12 -25 8 -9 12 -24 22 -33 23 -10 1 -7 4 7
8 l25 7 -23 21 -23 22 22 -6 c18 -5 22 -3 17 9 -3 9 0 21 6 27 9 9 8 14 -3 21
-13 8 -12 10 2 10 10 0 20 10 23 23 8 28 45 55 45 32 0 -8 -5 -15 -11 -15 -5
0 -7 -5 -4 -11 9 -13 35 21 28 37 -2 7 0 15 6 18 6 4 8 13 4 21 -3 8 -2 15 1
15 10 0 76 -71 76 -81 0 -16 -14 -10 -37 18 -13 14 -25 24 -27 22 -3 -2 11
-22 30 -43 30 -34 39 -37 35 -13 0 4 6 7 15 7 14 0 14 3 4 15 -8 10 -9 19 -3
28 5 6 9 27 7 45 -1 17 3 32 9 32 7 0 7 4 -1 12 -10 10 -15 10 -23 -2 -8 -11
-12 -12 -16 -2 -2 6 -9 12 -15 12 -6 0 -5 -7 3 -16 10 -13 10 -17 0 -23 -10
-7 -8 -13 9 -29 12 -11 17 -22 12 -26 -5 -3 -26 13 -48 35 -32 33 -36 41 -24
49 8 5 11 10 5 10 -5 0 -17 -5 -25 -10 -13 -9 -13 -11 0 -21 12 -8 12 -12 2
-16 -9 -3 -10 -9 -2 -18 8 -9 4 -17 -15 -29 -22 -14 -25 -15 -25 -1 0 8 4 15
8 15 4 0 7 16 7 35 -1 20 3 39 8 42 5 3 -1 12 -14 19 -13 7 -18 13 -11 14 15
0 16 30 0 30 -6 0 -3 6 8 14 19 15 19 15 -1 30 -19 15 -19 16 -1 9 12 -4 17
-3 13 4 -8 13 14 61 30 67 6 3 27 1 45 -5 18 -5 46 -9 62 -9 16 0 38 -7 48
-17 11 -9 18 -11 18 -5 0 7 7 12 15 12 14 0 20 -12 16 -33 -1 -4 6 -10 15 -14
9 -3 11 -9 6 -12 -17 -11 -25 -51 -10 -51 10 0 9 -3 -2 -10 -13 -9 -13 -11 0
-20 13 -8 12 -10 -2 -10 -11 0 -18 -8 -18 -20 0 -11 -5 -20 -11 -20 -8 0 -8
-4 0 -14 9 -10 9 -16 1 -21 -6 -4 -9 -13 -6 -20 2 -7 1 -16 -3 -21 -5 -5 -11
-21 -15 -37 -5 -22 -2 -29 16 -37 18 -7 19 -9 6 -9 -20 -1 -25 -31 -6 -31 6 0
3 -7 -8 -15 -11 -8 -14 -15 -6 -15 6 0 12 -5 12 -11 0 -5 -4 -8 -9 -5 -5 3
-11 -1 -15 -9 -3 -8 3 -19 12 -24 16 -10 16 -10 0 -11 -11 0 -18 -8 -18 -20 0
-11 -7 -23 -16 -27 -12 -5 -13 -7 -2 -14 10 -6 10 -11 1 -20 -17 -17 -39 27
-23 46 7 8 7 16 2 19 -11 6 -26 -22 -23 -41 1 -6 -3 -14 -8 -18 -6 -3 -7 -13
-4 -21 3 -9 1 -19 -6 -23 -15 -10 -3 -41 16 -41 13 0 13 3 3 15 -17 21 -5 31
15 12 18 -19 20 -37 3 -37 -8 0 -4 -8 7 -16 14 -11 16 -18 8 -21 -7 -3 -13
-11 -13 -18 0 -7 6 -16 13 -18 7 -4 6 -6 -4 -6 -19 -1 -35 -31 -16 -31 8 0 8
-3 -2 -9 -8 -5 -11 -16 -7 -26 4 -13 14 -15 38 -11 18 3 26 3 18 -1 -8 -3 -18
-11 -22 -17 -5 -8 -11 -7 -20 2 -18 18 -28 15 -28 -8 0 -25 -7 -25 -34 -3 -20
18 -20 17 -6 -2 8 -11 19 -23 24 -26 5 -4 5 -12 1 -19 -5 -9 -15 -4 -32 16
-13 16 -22 24 -19 17 4 -6 -1 -18 -9 -27 -10 -10 -12 -17 -5 -21 8 -5 8 -11 0
-20 -11 -14 -4 -45 11 -45 6 0 5 9 -1 20 -9 16 -8 20 6 20 14 0 14 3 4 15 -18
22 -5 30 20 12 19 -13 19 -16 6 -30 -12 -12 -13 -17 -3 -21 8 -3 7 -9 -6 -19
-17 -14 -17 -16 5 -31 12 -9 17 -16 10 -16 -16 0 -16 -30 1 -31 6 0 1 -5 -12
-10 -18 -7 -21 -12 -12 -23 9 -11 9 -15 -1 -18 -7 -3 10 -5 37 -5 71 -1 118
-7 133 -17 7 -4 16 -5 20 -1 3 3 0 10 -7 14 -9 6 -6 10 13 15 32 8 34 26 4 27
-22 0 -22 1 -3 9 30 12 57 48 43 56 -7 5 -5 12 7 21 11 7 13 13 7 13 -7 0 -12
7 -12 15 0 8 5 15 10 15 6 0 8 11 4 25 -4 17 -2 25 7 25 9 1 5 8 -10 20 -18
15 -19 20 -7 20 19 0 22 26 4 33 -8 4 -7 6 3 6 24 1 31 29 11 40 -16 10 -16
10 1 11 14 0 17 5 12 20 -4 11 -2 20 4 20 6 0 11 7 11 15 0 9 7 18 15 21 11 5
13 10 5 19 -7 8 -7 15 -1 19 5 3 7 15 4 26 -3 11 -1 20 5 20 6 0 8 9 5 20 -7
26 9 26 26 -1 9 -16 10 -24 2 -29 -7 -3 -9 -14 -5 -23 4 -10 1 -17 -6 -17 -7
0 -10 -7 -6 -17 4 -9 1 -20 -6 -24 -7 -4 -9 -11 -6 -15 12 -12 33 20 35 55 1
19 7 37 13 41 6 4 8 14 4 23 -3 10 -1 17 5 17 6 0 11 -4 11 -9 0 -5 8 -12 17
-15 13 -5 11 0 -6 18 -16 17 -28 23 -35 17 -7 -6 -20 -2 -35 11 -20 15 -22 21
-11 28 11 7 11 11 1 24 -10 12 -10 16 -1 16 6 0 10 8 8 17 -2 10 3 23 12 30
13 11 13 12 -4 13 -18 0 -18 1 -3 18 10 10 17 24 17 30 0 18 18 14 28 -5 9
-14 12 -15 23 -2 15 15 19 62 7 75 -5 4 -8 -3 -8 -15 0 -15 -4 -20 -12 -15
-10 6 -10 5 -1 -8 17 -19 5 -31 -13 -13 -17 16 -18 35 -3 35 8 0 8 5 -1 15
-10 12 -10 15 4 15 13 0 14 4 6 20 -5 11 -15 29 -20 40 -7 13 -7 20 0 20 5 0
10 7 10 16 0 11 -6 14 -22 9 -18 -4 -16 -2 6 11 17 9 24 19 18 23 -14 8 -11
42 6 59 7 8 9 18 6 24 -5 8 5 9 30 5 37 -6 37 -5 24 15 -8 12 -32 27 -54 34
-21 6 -31 12 -21 13 19 1 24 41 5 41 -9 0 -9 3 1 9 8 5 11 16 8 25 -4 9 -2 16
4 16 6 0 8 7 5 17 -4 10 2 25 15 40 13 12 19 23 15 23 -5 0 -3 7 4 15 8 10 9
15 1 15 -6 0 -10 11 -9 25 1 14 6 25 11 25 4 0 5 6 0 13 -11 18 -12 67 -1 67
6 0 8 6 5 14 -3 7 -1 18 4 23 13 13 20 48 23 128 1 39 8 80 15 93 6 12 9 27 6
32 -3 5 -1 11 3 14 5 3 9 43 9 89 0 46 6 93 12 105 6 12 13 54 16 94 4 84 7
95 23 124 11 21 24 194 14 194 -3 0 -13 -6 -21 -13 -28 -23 -124 -52 -129 -39
-4 14 -78 16 -87 3 -3 -5 7 -11 22 -13 l28 -4 -32 -15 c-17 -8 -41 -26 -52
-41 -30 -38 -89 -48 -274 -48 -259 0 -473 45 -649 137 -109 57 -205 155 -223
226 -4 14 -13 32 -21 38 -12 10 -17 6 -26 -19 -12 -32 -29 -36 -73 -17 -30 13
-36 27 -20 52 31 47 16 44 -62 -10z m1234 -600 c6 -4 18 -4 26 -1 8 3 18 1 21
-5 4 -6 20 -8 35 -5 16 3 37 1 48 -4 17 -9 18 -17 12 -64 -12 -86 -18 -112
-27 -138 -5 -14 -6 -35 -1 -47 5 -13 4 -25 -2 -28 -5 -4 -7 -10 -4 -15 3 -4
-1 -23 -9 -41 -8 -19 -16 -55 -19 -81 -5 -38 -3 -48 9 -48 7 0 14 -4 14 -10 0
-5 -7 -7 -15 -4 -8 4 -15 1 -15 -5 0 -6 6 -11 13 -11 9 0 9 -2 0 -8 -6 -4 -10
-20 -9 -35 2 -15 0 -27 -3 -27 -18 0 -38 -60 -36 -110 0 -30 -3 -61 -9 -68 -7
-9 -6 -16 3 -22 10 -6 11 -8 1 -12 -7 -2 -13 -13 -14 -23 -1 -11 -6 -33 -10
-48 -8 -27 -9 -28 -23 -7 -18 26 -70 28 -76 3 -4 -14 -5 -13 -6 3 -1 26 -29
40 -37 19 -5 -12 -8 -12 -22 2 -11 10 -17 12 -20 4 -5 -16 -22 -14 -22 4 0 8
-7 15 -15 15 -8 0 -15 5 -15 11 0 5 5 7 10 4 6 -3 10 -2 10 4 0 5 3 16 6 25 4
11 0 16 -12 16 -17 0 -16 1 2 15 16 13 17 16 4 25 -12 7 -12 10 -1 10 7 0 11
6 8 13 -3 7 4 24 14 38 10 13 19 19 19 13 0 -7 7 -14 15 -18 12 -4 13 -2 2 14
-6 11 -15 20 -19 20 -5 0 -8 5 -8 11 0 5 5 7 11 3 7 -4 9 0 5 12 -3 11 -2 25
3 33 5 8 6 24 1 37 -5 12 -6 25 -2 29 4 4 7 10 7 13 4 49 57 111 89 103 5 -1
4 5 -4 13 -23 28 4 16 35 -15 17 -18 22 -27 12 -23 -14 5 -16 2 -11 -12 6 -16
5 -17 -7 -6 -17 16 -30 15 -23 -2 3 -8 19 -14 39 -13 19 0 32 5 29 9 -3 4 -1
8 5 8 6 0 7 8 4 18 -6 15 -5 16 11 2 10 -8 13 -16 8 -18 -6 -2 -8 -10 -5 -18
3 -8 -1 -14 -8 -14 -11 0 -11 -3 1 -10 12 -7 18 -3 27 18 16 37 16 63 0 56 -8
-3 -20 2 -27 11 -7 9 -8 15 -2 15 6 0 12 -5 14 -12 5 -13 28 -2 28 13 0 6 -5
7 -10 4 -6 -4 -17 -2 -25 5 -9 8 -15 8 -20 0 -3 -6 -11 -8 -16 -5 -5 4 -9 1
-9 -4 0 -6 -5 -11 -11 -11 -6 0 -9 7 -6 14 4 10 1 13 -7 10 -8 -3 -17 0 -21 6
-6 9 -10 9 -16 -1 -7 -11 -11 -10 -24 6 -14 19 -14 34 0 95 2 8 4 20 4 27 1 6
13 11 29 10 22 -2 26 2 24 18 -2 11 -1 17 3 13 3 -3 8 -14 10 -25 2 -10 4 -20
4 -22 1 -2 8 2 16 9 8 7 12 16 9 21 -3 5 -1 9 5 9 16 0 25 -22 11 -30 -8 -5
-8 -9 4 -13 17 -7 29 7 33 38 2 11 8 24 14 30 7 7 9 -3 6 -32 -4 -45 -2 -49
23 -33 10 6 11 10 3 10 -8 0 -11 9 -9 23 3 12 5 22 6 22 1 0 3 10 4 22 2 16
-4 23 -21 28 -13 3 -28 3 -34 -1 -5 -3 -15 -1 -22 4 -7 5 -19 10 -27 10 -8 0
-24 3 -35 6 -11 2 -23 5 -28 5 -8 1 -1 40 14 82 10 25 31 31 56 16z m-1872
-997 c3 -5 14 -10 24 -10 10 0 26 -11 35 -25 9 -14 21 -23 25 -20 5 2 14 -2
21 -10 7 -8 19 -15 27 -15 7 0 16 -7 19 -15 4 -8 12 -15 19 -15 22 0 29 -21
12 -37 -13 -13 -18 -11 -42 21 -26 34 -45 46 -45 28 0 -10 27 -47 63 -84 15
-16 27 -33 27 -38 0 -5 6 -10 13 -13 22 -8 3 -15 -25 -10 -15 3 -25 9 -22 14
3 5 -4 9 -15 9 -12 0 -21 4 -21 8 0 4 -32 23 -71 41 -64 30 -73 32 -81 17 -11
-19 -28 -21 -28 -3 0 6 -17 20 -36 30 -33 16 -36 16 -30 2 3 -9 3 -21 0 -26
-9 -16 -34 10 -27 29 5 14 3 15 -8 5 -18 -18 -30 -16 -22 3 7 19 54 39 62 25
3 -5 20 -11 36 -12 24 -3 30 0 29 13 -2 16 1 16 24 -2 14 -11 26 -19 27 -18 7
8 -8 67 -16 63 -4 -3 -7 4 -6 15 1 11 5 20 10 20 4 0 5 5 2 10 -3 6 -2 10 4
10 5 0 13 -4 16 -10z m306 -197 c1 -17 2 -17 6 0 7 26 21 20 28 -12 3 -16 15
-37 25 -46 11 -10 17 -22 14 -27 -4 -5 7 -26 23 -46 42 -53 67 -102 51 -102
-30 0 -58 13 -58 27 0 8 -5 11 -11 8 -6 -4 -8 -14 -5 -22 4 -11 1 -13 -14 -8
-11 4 -20 2 -20 -4 0 -6 7 -11 16 -11 9 0 12 -5 8 -12 -5 -8 -12 -5 -23 8 -9
11 -24 23 -33 27 -10 3 -18 11 -18 17 0 7 -8 9 -19 5 -10 -3 -23 1 -30 9 -7 8
-30 17 -52 21 -21 4 -41 11 -45 16 -3 5 -16 9 -30 9 -14 0 -27 7 -30 15 -4 8
-13 15 -20 15 -8 0 -17 7 -20 15 -4 8 -11 15 -18 15 -6 0 -17 9 -24 20 -7 11
-10 20 -8 20 2 0 11 3 19 6 10 3 17 -3 21 -20 7 -29 40 -41 84 -33 27 5 68
-11 111 -44 50 -40 78 -15 44 38 -24 36 -24 71 0 79 11 3 16 12 13 20 -3 8 -1
14 4 14 6 0 11 -8 11 -17z m-771 -748 c4 3 6 -5 2 -17 -4 -15 -2 -19 7 -13 10
6 11 3 2 -12 -7 -14 -7 -24 2 -33 9 -10 9 -11 0 -6 -20 11 -36 -3 -22 -20 10
-12 9 -13 -4 -9 -11 5 -17 -2 -22 -24 -4 -17 -11 -31 -16 -31 -5 0 -14 -11
-19 -25 -10 -26 -49 -48 -62 -36 -13 12 -21 71 -10 71 6 0 12 -10 14 -22 2
-15 11 -24 26 -26 20 -3 23 0 17 16 -4 14 0 24 12 31 27 15 3 37 -25 22 -27
-15 -32 -14 -32 5 0 10 6 14 15 10 19 -7 19 8 1 37 -13 20 -13 24 3 44 10 12
21 19 25 16 3 -4 6 4 6 16 0 12 4 20 9 16 6 -3 16 1 23 9 11 11 15 11 26 -5 7
-11 17 -17 22 -14z m951 -126 c-9 -27 -8 -34 7 -45 16 -12 16 -12 -2 -11 -11
1 -25 -7 -31 -20 -10 -19 -12 -19 -21 -6 -10 15 -21 13 -64 -15 -2 -2 2 -7 9
-11 7 -5 12 -14 9 -22 -2 -7 -16 9 -31 34 -30 50 -36 54 -55 35 -9 -9 -12 -8
-12 4 0 9 -7 18 -15 22 -8 3 -15 12 -15 20 0 9 6 13 14 10 7 -3 16 3 20 13 6
15 9 15 16 3 8 -12 10 -12 15 3 6 14 9 15 22 2 8 -8 20 -15 26 -15 8 0 7 4 -1
12 -20 20 -14 33 7 14 17 -16 19 -16 25 0 6 15 9 14 27 -7 21 -23 21 -23 15
-2 -6 18 -4 21 15 16 17 -5 20 -3 14 8 -6 11 -5 11 5 2 10 -9 10 -19 1 -44z
m-697 -50 c-2 -4 5 -9 16 -12 11 -3 23 -1 26 5 3 5 13 0 21 -12 8 -11 20 -19
26 -17 7 2 18 -3 25 -12 9 -11 15 -13 18 -4 4 8 11 7 24 -4 10 -9 16 -21 13
-26 -3 -5 1 -13 8 -18 11 -7 10 -9 -5 -9 -12 0 -16 -5 -12 -15 3 -10 -1 -15
-12 -15 -15 -1 -15 -2 2 -15 20 -15 20 -15 0 -15 -23 0 -52 -31 -46 -49 2 -7
-5 -15 -17 -18 -17 -4 -19 -8 -10 -19 6 -7 7 -19 3 -25 -5 -9 -11 -7 -20 6
-11 15 -16 16 -29 5 -12 -10 -15 -10 -15 1 0 8 -3 24 -6 37 -4 12 -2 22 4 22
5 0 12 -9 15 -21 5 -17 8 -18 25 -8 11 7 22 25 24 40 3 16 1 26 -4 23 -5 -3
-17 5 -27 17 -16 20 -20 21 -33 8 -8 -8 -13 -20 -10 -27 2 -6 -4 -15 -12 -18
-10 -4 -14 -13 -11 -24 3 -9 -2 -23 -10 -30 -8 -7 -13 -20 -10 -29 2 -9 0 -23
-5 -31 -7 -11 -10 -3 -10 28 0 23 5 42 10 42 6 0 10 11 10 25 0 14 5 25 11 25
6 0 8 8 4 19 -3 11 -1 22 5 26 6 3 7 11 4 17 -4 6 -10 5 -15 -3 -8 -11 -11
-11 -20 4 -5 9 -15 17 -21 17 -7 0 -7 -4 1 -13 6 -8 8 -17 4 -20 -3 -4 -1 -7
5 -7 7 0 12 -7 12 -15 0 -25 -15 -17 -27 15 -11 28 -33 42 -33 20 0 -5 5 -10
11 -10 6 0 9 -7 5 -15 -3 -8 -1 -15 5 -15 6 0 9 -7 6 -15 -4 -8 -2 -17 3 -20
12 -7 13 -35 2 -35 -4 0 -16 29 -28 65 -17 54 -18 65 -5 65 11 0 10 4 -4 20
-12 13 -14 20 -5 20 7 0 10 7 6 15 -3 8 0 14 7 12 7 -1 11 3 10 9 -1 7 11 18
26 26 30 14 73 19 65 7z m-1397 -35 c-3 -4 0 -13 8 -20 8 -8 11 -22 8 -32 -4
-13 -2 -13 10 3 9 11 17 26 17 34 0 10 6 7 19 -7 19 -23 33 -20 24 4 -3 8 0
14 6 14 6 0 11 -7 11 -15 0 -8 5 -15 11 -15 7 0 9 -9 6 -22 -5 -21 -5 -21 7
-5 15 19 34 22 56 6 12 -8 9 -10 -12 -6 -24 4 -26 1 -25 -27 1 -19 -2 -30 -10
-29 -7 2 -12 -7 -11 -20 2 -41 -14 -88 -28 -83 -10 4 -12 -2 -7 -24 3 -19 1
-30 -6 -30 -6 0 -14 14 -18 30 -5 30 -6 30 -20 10 -11 -16 -18 -18 -34 -10
-15 9 -21 7 -26 -6 -5 -14 -8 -13 -24 7 -16 20 -20 22 -29 9 -8 -13 -11 -12
-24 5 -10 12 -19 16 -23 10 -5 -6 -17 -1 -32 14 -15 15 -17 22 -7 18 11 -5 18
1 22 21 4 15 20 56 35 91 26 57 31 63 54 59 17 -4 25 -1 25 8 0 8 5 14 12 14
6 0 9 -3 5 -6z"/>
<path d="M1617 2980 c-3 -21 -12 -53 -21 -71 -13 -25 -16 -66 -16 -196 0 -109
3 -162 10 -158 6 4 8 10 5 14 -2 5 5 17 16 27 12 11 33 39 47 64 14 25 35 53
46 63 18 16 20 16 38 1 14 -14 18 -14 18 -3 0 24 -17 42 -33 36 -11 -4 -14 -1
-11 7 3 7 -2 16 -10 19 -20 8 -21 47 -2 47 8 0 17 7 20 16 5 14 4 15 -9 4 -13
-10 -15 -9 -15 10 0 13 -8 24 -20 27 -11 3 -20 9 -20 14 0 5 -8 6 -17 2 -12
-3 -10 0 5 12 12 9 21 24 20 33 -2 11 6 18 22 22 26 5 70 31 70 40 0 3 -9 6
-19 6 -11 0 -18 -3 -16 -7 6 -8 -77 -5 -91 4 -7 4 -13 -7 -17 -33z"/>
<path d="M2956 2961 c-18 -7 -18 -8 -2 -14 10 -4 27 -2 38 4 14 8 23 8 31 0 8
-8 8 -11 -1 -11 -6 0 -21 -10 -34 -23 -23 -22 -24 -23 -42 -5 -18 16 -21 17
-37 2 -18 -16 -44 -11 -34 7 4 5 -9 9 -27 9 l-33 0 60 -55 c32 -30 60 -55 62
-55 8 0 43 -41 43 -50 0 -5 10 -10 23 -10 17 0 19 2 8 9 -16 10 -23 51 -9 51
4 0 8 -4 8 -10 0 -5 5 -10 11 -10 7 0 9 10 5 26 -6 24 -6 25 14 11 26 -18 70
-10 70 13 0 9 -9 29 -21 44 -11 14 -17 26 -12 26 4 0 17 -13 28 -30 23 -35 45
-46 45 -24 0 61 -123 121 -194 95z"/>
<path d="M2737 2803 c4 -10 2 -14 -4 -10 -6 4 -24 2 -41 -4 -37 -13 -41 -49
-6 -49 28 0 76 -25 100 -51 26 -29 93 -71 103 -64 5 2 16 -12 24 -33 14 -35
18 -38 46 -34 17 2 31 8 31 13 0 5 -11 7 -25 3 -24 -6 -31 5 -26 39 4 27 -111
161 -136 157 -4 -1 -9 4 -11 12 -3 10 -2 10 6 -1 6 -8 12 -9 16 -3 3 5 -1 15
-9 22 -8 7 -15 9 -15 5 0 -4 -6 -2 -14 4 -11 9 -15 9 -19 -1 -4 -10 -6 -10 -6
0 -1 6 -5 12 -11 12 -5 0 -6 -7 -3 -17z"/>
<path d="M4977 2748 c-2 -18 -1 -43 4 -55 4 -12 4 -36 -1 -54 -5 -17 -7 -35
-5 -39 3 -4 -2 -13 -10 -20 -20 -16 -29 -90 -17 -144 5 -25 6 -46 1 -46 -5 0
-6 -6 -3 -13 2 -7 -4 -21 -15 -31 -12 -11 -17 -24 -13 -34 5 -14 3 -15 -10 -4
-20 16 -53 5 -38 -13 8 -9 8 -15 0 -20 -6 -3 -7 -11 -4 -17 4 -6 0 -15 -7 -20
-10 -7 -8 -9 8 -5 12 3 35 -4 52 -14 17 -10 39 -16 48 -13 15 5 16 4 3 -5 -8
-6 -22 -8 -30 -6 -12 4 -16 -3 -15 -33 0 -23 -6 -42 -16 -49 -10 -8 -15 -21
-12 -37 3 -13 0 -33 -6 -45 -10 -18 -9 -23 11 -31 13 -5 17 -9 9 -9 -11 -1 -9
-6 5 -22 19 -21 19 -22 -2 -15 -17 5 -20 2 -19 -16 3 -32 -12 -58 -30 -52 -8
4 -15 2 -15 -4 0 -6 5 -12 12 -14 8 -3 7 -13 -4 -36 -12 -22 -13 -32 -4 -36 7
-3 6 -8 -4 -15 -12 -8 -9 -12 15 -22 28 -10 28 -12 10 -19 -13 -6 -15 -9 -5
-10 12 0 12 -3 -2 -14 -13 -10 -15 -15 -6 -24 8 -8 8 -12 1 -12 -6 0 -13 -9
-16 -20 -3 -11 0 -20 6 -20 9 0 8 -3 0 -8 -7 -4 -14 -31 -16 -60 -2 -47 0 -52
18 -52 16 0 17 -2 5 -10 -23 -14 -4 -23 21 -9 17 9 24 9 27 0 2 -6 14 -9 30
-5 21 4 24 3 12 -5 -13 -10 -13 -12 -1 -20 12 -8 9 -11 -12 -16 -15 -4 -24
-11 -21 -16 3 -6 15 -7 27 -4 16 4 18 4 7 -3 -8 -5 -26 -13 -40 -16 -19 -6
-22 -5 -10 3 13 9 13 12 1 20 -11 7 -9 10 8 16 18 5 30 25 16 25 -16 0 -88
-44 -78 -47 13 -5 11 -9 -27 -50 -11 -12 -12 -17 -2 -21 6 -2 12 -10 12 -18 0
-24 -19 -6 -27 26 -6 23 -11 27 -23 20 -9 -6 -11 -13 -5 -18 6 -4 21 -19 33
-34 l24 -26 -23 -12 c-19 -11 -21 -10 -16 4 4 11 3 15 -4 11 -13 -9 -39 13
-39 32 0 13 3 13 15 3 8 -7 15 -8 15 -3 0 5 -10 17 -21 27 -18 15 -19 20 -8
28 11 8 9 8 -5 4 -10 -4 -25 -1 -33 5 -7 7 -16 9 -20 5 -3 -3 -1 -6 5 -6 7 0
12 -8 12 -17 0 -13 -3 -14 -12 -5 -7 7 -19 12 -27 12 -10 0 -8 -6 7 -19 12
-10 22 -23 22 -29 0 -5 7 -13 16 -16 8 -3 12 -11 9 -17 -5 -6 -12 -3 -22 10
-8 12 -19 21 -25 21 -6 0 -8 -3 -5 -7 4 -3 2 -12 -4 -19 -7 -9 -3 -19 18 -38
36 -34 50 -34 16 0 -34 34 -22 43 14 9 25 -24 78 -59 61 -40 -7 8 19 34 35 35
12 0 8 -28 -5 -33 -8 -4 -4 -8 10 -12 22 -7 31 -25 12 -25 -5 0 -10 -5 -10
-11 0 -6 9 -8 23 -4 22 7 22 7 2 -9 -19 -16 -19 -17 15 -11 30 4 32 4 11 -5
-13 -6 -32 -8 -42 -5 -21 7 -26 -10 -6 -18 7 -3 5 -6 -5 -6 -19 -1 -26 -21 -8
-21 6 0 10 -4 10 -10 0 -5 -7 -10 -15 -10 -8 0 -15 -9 -15 -20 0 -25 -9 -25
-26 -2 -7 9 -14 12 -14 5 0 -6 7 -19 16 -28 9 -8 13 -22 10 -30 -3 -8 -1 -17
4 -20 6 -4 5 -12 -3 -19 -6 -8 -15 -12 -19 -9 -5 2 -8 0 -8 -6 0 -5 6 -12 13
-15 9 -4 7 -9 -5 -18 -16 -11 -15 -14 10 -30 20 -13 23 -18 10 -18 -20 0 -24
-26 -5 -33 7 -3 5 -6 -6 -6 -18 -1 -19 -20 -2 -34 6 -4 3 -12 -9 -18 -14 -9
-15 -13 -6 -19 11 -7 10 -11 -2 -24 -9 -9 -18 -21 -21 -28 -3 -10 -10 -8 -25
6 -21 18 -22 18 -28 1 -7 -17 -8 -17 -20 0 -16 22 -34 11 -34 -21 0 -29 -15
-31 -32 -4 -7 11 -20 20 -28 20 -12 0 -13 -2 -1 -9 7 -5 10 -14 6 -20 -5 -9
-11 -7 -20 6 -7 10 -17 15 -21 10 -4 -4 -2 -7 4 -7 7 0 12 -7 12 -15 0 -8 5
-15 10 -15 6 0 10 -7 10 -15 0 -23 -14 -18 -32 13 -14 22 -18 23 -18 8 0 -25
41 -61 51 -44 5 8 16 3 36 -18 42 -45 60 -49 68 -13 6 24 9 28 21 18 17 -14
18 -39 2 -40 -7 0 1 -7 17 -14 17 -8 23 -14 13 -15 -23 0 -28 -22 -9 -37 14
-11 14 -12 -3 -13 -13 0 -16 -5 -12 -17 4 -9 1 -20 -6 -24 -9 -6 -9 -11 1 -23
11 -13 11 -16 -3 -16 -9 0 -16 -7 -16 -16 0 -9 -9 -18 -20 -21 -19 -5 -19 -6
-4 -18 18 -12 10 -40 -7 -29 -6 3 -5 -3 2 -14 16 -26 2 -43 -15 -19 -7 9 -19
17 -25 17 -7 0 -1 -11 13 -24 30 -27 33 -43 9 -49 -14 -3 -12 -5 7 -11 32 -9
59 -46 34 -46 -8 0 -12 5 -9 10 3 6 2 10 -4 10 -5 0 -13 -5 -16 -10 -3 -6 -1
-10 4 -10 6 0 11 -4 11 -10 0 -5 -7 -10 -15 -10 -18 0 -19 -12 -3 -28 9 -9 8
-12 -5 -12 -9 0 -17 -5 -17 -11 0 -11 37 -3 57 13 7 5 14 5 18 -2 3 -5 1 -10
-4 -10 -6 0 -11 -5 -11 -10 0 -6 12 -8 28 -5 15 3 20 2 12 -1 -8 -4 -17 -10
-20 -13 -16 -19 -53 -32 -63 -22 -8 8 -6 11 6 11 19 0 23 15 7 25 -5 3 -10 1
-10 -4 0 -6 -7 -11 -15 -11 -8 0 -15 -7 -15 -15 0 -9 -6 -18 -12 -20 -7 -3
-13 -20 -13 -38 l0 -32 120 -3 120 -3 1 30 c1 20 -5 32 -20 39 -18 9 -18 11
-3 11 20 1 23 27 5 34 -8 3 -6 6 5 6 9 1 17 8 17 16 0 17 -16 20 -25 5 -3 -6
-12 -10 -18 -10 -7 0 -3 7 8 16 17 13 18 16 5 24 -13 8 -13 10 2 10 9 0 18 -6
21 -12 2 -7 8 -10 12 -6 4 4 2 14 -5 23 -10 12 -10 15 4 15 9 0 16 3 16 8 0 4
4 13 9 21 8 12 12 12 26 -2 9 -10 21 -17 27 -17 6 0 -1 12 -16 26 -14 15 -26
34 -26 43 1 14 2 14 13 1 15 -18 47 -44 47 -38 0 3 -11 18 -24 33 -19 22 -23
36 -19 59 3 17 6 35 7 40 0 5 -10 15 -24 23 -24 12 -24 13 -3 13 31 0 38 19
11 29 l-23 10 23 0 c26 1 29 16 5 30 -17 10 -17 10 0 11 20 0 22 11 5 28 -9 9
-8 12 4 12 9 0 20 9 23 20 3 11 13 20 22 20 13 0 13 3 3 15 -7 9 -10 18 -6 22
3 4 13 -2 21 -13 17 -23 19 -34 4 -34 -5 0 -7 -5 -3 -11 5 -8 10 -6 16 5 7 12
13 14 21 7 9 -7 13 -1 14 18 1 19 -8 38 -28 60 -16 18 -29 40 -29 49 0 13 6
10 24 -11 13 -15 25 -27 27 -27 2 0 4 14 5 30 1 30 -10 40 -20 18 -3 -9 -8 -8
-16 5 -7 10 -21 22 -33 27 -18 7 -18 9 -4 9 9 1 17 8 17 16 0 16 -16 21 -22 6
-1 -5 -14 -11 -28 -14 -14 -2 -19 -2 -12 0 6 3 12 11 12 18 0 7 -6 16 -12 18
-8 4 -7 6 4 6 9 1 18 -3 20 -9 5 -14 48 0 48 16 0 8 -4 14 -10 14 -18 0 -11
18 10 25 27 9 25 25 -2 26 -15 0 -18 3 -8 6 20 8 40 29 40 43 0 6 5 8 10 5 6
-3 10 -1 10 4 0 6 -4 11 -10 11 -5 0 -10 9 -10 20 0 11 5 20 11 20 8 0 8 4 0
14 -7 8 -8 17 -3 20 16 9 11 60 -7 73 -15 11 -14 12 2 13 9 0 17 6 17 14 0 8
-8 17 -17 19 -14 4 -14 5 -2 6 13 1 15 22 18 132 2 114 0 131 -13 126 -10 -4
-13 -1 -10 8 4 10 -1 12 -18 9 -20 -5 -21 -4 -5 6 14 9 22 9 33 0 8 -7 14 -8
14 -2 0 5 -7 15 -15 22 -14 12 -14 15 0 30 19 21 21 146 3 153 -10 4 -10 6 0
6 6 1 12 10 12 20 0 11 -6 22 -12 24 -10 4 -10 6 0 6 6 1 12 12 12 25 0 13 -6
27 -12 29 -10 4 -10 6 0 6 8 1 12 25 12 87 0 81 -1 86 -20 81 -11 -3 -23 -1
-26 4 -3 5 1 9 8 9 9 0 9 3 -2 10 -20 13 -33 13 -25 0 4 -6 -1 -7 -11 -3 -14
5 -14 7 -1 15 9 4 27 4 42 -2 38 -14 40 -13 14 10 -13 10 -18 19 -11 20 6 0
12 -4 12 -10 0 -5 4 -10 8 -10 14 0 14 152 0 162 -7 4 -8 8 -3 8 7 0 12 45 13
120 3 106 1 120 -14 120 -13 0 -15 6 -10 31 3 17 6 36 6 41 0 5 4 7 9 3 6 -3
10 68 11 175 0 104 -3 180 -9 180 -5 0 -11 -15 -14 -32z"/>
<path d="M2547 2684 c40 -126 98 -222 128 -211 8 4 17 1 21 -5 5 -7 2 -8 -6
-3 -9 5 -11 4 -6 -4 4 -6 12 -9 17 -5 5 3 31 -8 58 -25 32 -21 55 -29 67 -25
13 5 9 -1 -10 -18 -18 -16 -24 -28 -17 -32 6 -4 11 -3 11 3 0 6 21 8 53 5 66
-6 132 7 132 26 0 8 4 20 7 26 4 6 1 11 -7 11 -8 0 -15 -5 -15 -10 0 -5 -11
-7 -25 -5 -14 3 -25 1 -25 -3 0 -12 -37 -11 -45 1 -3 6 0 13 8 16 27 10 12 67
-29 108 -33 33 -46 39 -87 41 -33 2 -56 10 -71 24 -12 12 -26 21 -30 21 -4 0
-14 6 -22 14 -7 8 -18 16 -24 18 -5 1 -11 14 -12 28 -2 19 2 26 20 28 21 3 28
-13 23 -55 -1 -7 5 -13 14 -13 15 0 19 11 15 40 -2 17 -30 39 -49 40 -8 0 -25
10 -38 22 -19 18 -27 20 -42 11 -13 -8 -22 -8 -29 -1 -6 6 1 -25 15 -68z"/>
<path d="M1873 2630 c2 -29 8 -34 35 -31 6 1 13 -3 13 -9 2 -12 6 -46 8 -60 0
-5 8 -7 17 -3 12 4 13 8 3 13 -6 5 -9 15 -6 23 8 22 45 10 49 -17 2 -15 9 -20
26 -18 14 2 22 -2 22 -12 0 -8 6 -17 13 -19 6 -3 -2 -6 -20 -6 -17 -1 -33 -7
-35 -13 -4 -10 -10 -10 -31 -1 -15 7 -27 8 -27 3 0 -5 -7 -7 -15 -4 -11 5 -13
2 -9 -11 4 -10 1 -21 -7 -26 -11 -7 -9 -9 8 -9 16 0 21 -4 17 -15 -4 -8 -2
-15 4 -15 6 0 9 11 8 24 -2 18 1 23 12 18 11 -4 13 -1 7 7 -6 10 -3 11 13 2
23 -12 73 -11 65 2 -3 4 4 11 15 14 11 3 18 11 16 18 -3 7 2 15 10 18 18 7 10
43 -12 52 -8 3 -20 1 -25 -4 -6 -6 -15 -4 -25 6 -14 14 -14 17 3 29 10 8 21
14 25 14 3 0 6 9 6 19 0 14 -4 17 -16 12 -8 -5 -22 -7 -30 -6 -31 6 -45 10
-50 16 -3 4 -16 9 -30 13 -19 6 -21 5 -10 -3 20 -14 -4 -15 -30 -1 -17 9 -19
7 -17 -20z"/>
<path d="M2210 2503 c0 -41 24 -75 48 -66 11 5 13 3 7 -7 -5 -8 1 -19 16 -31
25 -19 23 -20 -34 -21 -45 -2 -57 8 -57 42 0 31 -36 74 -56 66 -6 -2 -17 1
-23 7 -7 7 -5 -3 4 -21 9 -18 24 -32 34 -32 12 0 22 -13 30 -42 7 -24 20 -51
28 -60 12 -13 13 -21 5 -31 -9 -10 -4 -21 18 -45 28 -31 48 -43 35 -21 -9 13
26 40 43 34 8 -3 10 0 6 6 -14 23 20 27 63 8 25 -10 46 -19 48 -19 3 0 4 20 3
44 0 36 -4 43 -16 39 -10 -4 -13 -2 -8 5 10 16 -35 74 -52 67 -8 -3 -22 0 -30
7 -13 11 -15 11 -8 -2 4 -8 0 -6 -8 4 -12 15 -16 16 -16 5 -1 -11 -4 -10 -14
3 -7 10 -16 15 -19 11 -4 -3 -7 1 -7 11 0 10 5 15 13 11 6 -4 2 2 -11 13 -12
11 -18 22 -12 24 6 2 1 9 -10 16 -19 11 -20 10 -20 -25z"/>
<path d="M2044 2420 c-5 -5 -25 -11 -46 -13 -20 -2 -47 -11 -60 -21 -12 -9
-18 -14 -11 -11 17 8 28 -16 12 -26 -18 -11 -20 -77 -2 -83 11 -4 11 -10 3
-26 -6 -11 -15 -18 -20 -15 -5 3 -11 1 -15 -5 -3 -5 -18 -7 -33 -4 l-27 6 25
-21 c16 -12 29 -16 34 -10 6 5 21 9 35 9 36 1 99 32 94 48 -3 6 -11 12 -19 12
-8 0 -24 11 -36 25 -11 13 -24 22 -28 20 -4 -2 -7 6 -6 18 1 18 6 21 31 19 17
-2 37 -10 45 -17 8 -7 21 -10 28 -8 7 3 15 -7 18 -26 4 -17 10 -31 14 -31 4 0
12 -11 18 -24 8 -18 16 -23 31 -19 12 3 34 0 50 -7 37 -15 60 -4 34 16 -10 7
-25 14 -33 14 -9 0 -16 10 -18 25 -2 23 0 24 19 15 18 -10 19 -10 7 9 -6 11
-16 17 -22 14 -5 -4 -7 1 -3 10 3 8 -1 21 -9 27 -11 10 -14 10 -14 0 0 -9 -7
-7 -20 5 -11 10 -20 23 -20 30 0 19 -45 56 -56 45z"/>
<path d="M3074 2375 c4 -15 0 -38 -10 -56 -15 -30 -15 -32 12 -60 l28 -29 12
30 c14 33 44 41 44 11 0 -11 12 -34 26 -51 23 -26 31 -30 58 -25 23 5 27 4 16
-4 -13 -10 -13 -11 0 -11 8 0 21 9 28 20 7 11 18 17 27 14 9 -4 15 0 16 7 0 8
4 4 9 -8 10 -24 34 -31 45 -13 3 6 15 10 26 10 35 0 19 15 -51 47 -61 29 -74
32 -114 24 -50 -9 -62 -5 -45 16 9 10 6 13 -13 13 -40 0 -85 28 -97 60 -12 36
-26 40 -17 5z"/>
<path d="M112 2193 c-6 -2 -10 -9 -6 -14 3 -5 -1 -9 -9 -9 -21 0 -100 -77 -92
-90 5 -7 11 -8 19 -1 15 12 101 -10 89 -23 -4 -5 2 -2 15 5 12 8 22 17 22 22
0 4 5 5 12 1 8 -5 9 -2 4 11 -7 18 -6 18 14 0 22 -20 24 -20 50 27 14 24 1 48
-26 48 -14 0 -27 7 -30 15 -6 15 -36 19 -62 8z"/>
<path d="M3100 2197 c-3 -3 -3 -28 -2 -55 3 -39 7 -49 18 -45 8 3 14 -1 14
-11 0 -15 12 -19 55 -17 11 0 14 -2 7 -5 -10 -4 -10 -9 -2 -19 8 -10 8 -19 0
-35 -9 -16 -8 -25 1 -37 11 -13 10 -18 -6 -29 -10 -8 -27 -12 -37 -8 -12 3
-18 0 -18 -10 0 -9 7 -16 15 -16 8 0 15 -3 15 -7 0 -5 9 -19 19 -33 l19 -24
-1 34 c-2 30 1 35 18 32 33 -5 64 -24 59 -36 -7 -17 32 -50 48 -40 7 4 10 4 6
-1 -4 -4 3 -16 15 -27 17 -15 18 -18 5 -14 -10 3 -18 1 -18 -4 0 -12 7 -12 46
-1 21 6 36 5 49 -5 26 -19 35 -18 35 5 0 12 10 21 27 26 26 6 27 7 10 20 -11
8 -25 11 -33 8 -10 -4 -12 0 -8 11 3 9 10 14 14 11 4 -3 11 2 14 11 4 11 -1
18 -15 21 -11 3 -18 11 -15 19 11 29 -33 102 -81 133 -49 33 -53 34 -119 31
-30 -1 -49 5 -70 23 -16 13 -34 22 -40 20 -6 -2 -15 6 -19 19 -4 13 -11 31
-14 41 -3 10 -8 16 -11 14z"/>
<path d="M937 1798 c-3 -11 -10 -17 -16 -14 -6 4 -22 -3 -36 -16 -27 -24 -55
-32 -55 -17 0 6 -5 7 -10 4 -6 -4 -17 -1 -25 5 -8 6 -19 9 -25 5 -6 -4 -18 1
-25 11 -13 18 -14 18 -15 2 0 -10 5 -18 11 -18 6 0 9 -9 6 -19 -3 -15 1 -21
17 -23 29 -4 27 -33 -2 -34 -16 -1 -21 3 -18 13 3 8 1 11 -4 8 -13 -8 -13 -45
0 -45 19 0 10 -29 -13 -44 -30 -20 -82 -8 -82 19 0 10 -5 20 -11 22 -7 2 -11
-4 -10 -14 0 -12 -7 -19 -22 -21 -21 -3 -23 -8 -19 -40 3 -26 -2 -45 -15 -65
-17 -24 -21 -25 -34 -12 -9 8 -19 15 -24 15 -12 0 -20 -29 -10 -35 6 -4 10
-11 10 -16 0 -6 -13 -2 -30 8 -16 9 -30 21 -30 25 0 4 -7 4 -17 1 -11 -4 -14
-3 -9 5 4 7 2 12 -3 12 -15 0 -14 -11 5 -31 11 -13 13 -22 6 -35 -9 -16 -10
-15 -16 4 -8 24 -49 31 -62 10 -4 -6 -3 -8 4 -5 12 8 42 -2 42 -14 0 -4 -7 -6
-15 -3 -10 4 -15 0 -16 -12 0 -11 -3 -14 -6 -6 -2 6 -11 12 -19 12 -8 0 -14 7
-14 15 0 17 -16 20 -25 5 -8 -13 -35 6 -35 24 0 6 4 5 9 -3 8 -12 12 -12 25
-2 8 7 20 10 26 6 8 -5 9 4 5 29 -6 27 -4 37 8 42 12 4 16 19 15 55 0 27 6 56
12 64 12 15 4 20 -22 16 -5 0 -8 2 -8 6 0 13 -147 15 -155 4 -3 -6 -11 -11
-16 -11 -6 0 -7 5 -4 10 3 6 -1 10 -10 10 -10 0 -15 -7 -13 -17 3 -17 -17 -44
-55 -72 -15 -12 -17 -12 -11 5 7 19 7 19 -14 0 -26 -22 -32 -57 -7 -36 13 11
14 10 9 -4 -3 -9 -11 -16 -16 -16 -6 0 -8 -9 -5 -21 5 -18 2 -20 -19 -15 -18
5 -24 2 -24 -9 0 -13 7 -15 32 -11 18 3 38 0 45 -5 9 -8 18 -5 34 10 28 26 30
26 59 1 25 -21 31 -23 69 -20 15 1 21 -2 16 -10 -4 -6 -1 -18 7 -27 11 -14 11
-16 -1 -9 -8 5 -16 3 -21 -5 -5 -7 -14 -14 -22 -15 -7 -2 -23 -5 -35 -8 -16
-3 -23 0 -23 10 0 8 4 13 9 10 5 -4 8 0 7 6 -2 16 -11 19 -31 12 -8 -4 -24 -4
-35 -1 -24 6 -27 -8 -3 -17 12 -5 13 -10 6 -17 -13 -13 -33 -3 -33 16 0 16
-35 29 -51 19 -6 -3 -15 0 -20 7 -6 10 -9 6 -9 -13 0 -16 5 -28 10 -28 6 0 10
-7 10 -16 0 -8 -5 -12 -10 -9 -6 4 -10 -43 -10 -135 l0 -140 53 26 c318 156
362 184 732 460 166 124 206 161 196 184 -9 22 -39 21 -44 -2z"/>
<path d="M4270 540 c0 -5 6 -10 13 -11 6 0 1 -5 -12 -10 -13 -5 -29 -8 -35 -5
-6 2 -3 5 7 5 9 1 17 6 17 12 0 6 -7 8 -16 5 -9 -3 -20 -6 -25 -6 -11 0 -33
-49 -30 -68 1 -7 -5 -15 -14 -19 -12 -4 -13 -8 -5 -13 8 -5 9 -13 4 -21 -5 -8
-7 -22 -6 -31 2 -10 -3 -18 -10 -18 -8 -1 -5 -7 7 -16 14 -11 16 -18 8 -21
-22 -8 -14 -24 10 -20 12 2 16 2 10 0 -7 -3 -13 -9 -13 -14 0 -5 -7 -9 -15 -9
-8 0 -15 -5 -15 -11 0 -13 42 -1 52 15 5 8 10 8 19 -1 8 -8 3 -13 -20 -18 -17
-4 -31 -10 -31 -15 0 -4 -10 -10 -22 -14 -20 -5 -21 -8 -8 -17 12 -8 12 -12 2
-16 -15 -6 -36 -51 -33 -71 1 -7 -5 -15 -14 -19 -13 -5 -14 -8 -3 -15 10 -7 9
-11 -5 -22 -12 -10 -14 -15 -6 -18 7 -2 9 -10 5 -17 -6 -9 -12 -7 -23 9 -12
16 -13 24 -4 29 16 10 3 41 -18 41 -13 0 -14 -2 -2 -9 12 -7 12 -13 3 -24 -7
-7 -8 -17 -4 -21 4 -4 -2 -14 -12 -22 -17 -12 -18 -14 -3 -14 9 0 17 6 17 13
1 7 6 6 14 -5 21 -29 63 -38 167 -38 96 0 100 1 94 20 -4 12 -2 20 5 20 7 0 9
7 6 16 -4 10 4 20 27 30 20 9 23 13 10 10 -15 -3 -23 1 -23 10 0 8 6 14 13 14
6 0 1 9 -12 19 -22 17 -22 18 -5 25 18 7 18 8 0 22 -19 14 -19 14 2 14 32 0
27 16 -14 56 -24 22 -31 34 -21 34 8 0 17 -5 19 -11 6 -18 55 7 61 31 4 15 10
19 19 14 10 -6 10 -5 0 9 -8 9 -10 22 -6 29 5 7 9 20 9 28 0 8 6 14 13 12 10
-2 10 2 0 18 -10 16 -10 22 -1 28 14 9 5 26 -17 35 -12 4 -11 6 3 6 22 1 22
14 -1 34 -21 19 -38 11 -21 -10 19 -22 -2 -15 -22 8 -10 12 -25 19 -33 16 -9
-4 -18 -2 -21 3 -8 13 -35 13 -35 0z"/>
</g>
</svg>
